<svg width="53" height="53" viewBox="0 0 53 53" fill="none" xmlns="http://www.w3.org/2000/svg">
<path d="M0 10C0 4.47715 4.47715 0 10 0H43C48.5229 0 53 4.47715 53 10V43C53 48.5229 48.5228 53 43 53H10C4.47715 53 0 48.5228 0 43V10Z" fill="white"/>
<path fill-rule="evenodd" clip-rule="evenodd" d="M27 12.25C21.2067 12.25 16.5834 16.7788 16.5834 22.2766C16.5834 25.6176 17.9516 28.4989 20.3923 30.2934C20.9302 30.6889 21.3904 31.2787 21.5666 32.027C21.7113 32.6412 21.8768 33.3895 22.0408 34.1826H31.9593C32.1232 33.3895 32.2888 32.6412 32.4334 32.027C32.6097 31.2787 33.0699 30.6889 33.6078 30.2934C36.0485 28.4989 37.4167 25.6176 37.4167 22.2766C37.4167 16.7788 32.7934 12.25 27 12.25ZM31.4812 36.6826H22.5188C22.7029 37.7452 22.8472 38.7516 22.8909 39.474C22.937 40.2347 23.5055 40.9164 24.3437 41.0975L24.6704 41.1681C26.2044 41.4995 27.7957 41.4995 29.3297 41.1681L29.6564 41.0975C30.4946 40.9164 31.0631 40.2347 31.1091 39.474C31.1529 38.7516 31.2972 37.7452 31.4812 36.6826ZM14.0834 22.2766C14.0834 15.3186 19.9068 9.75 27 9.75C34.0933 9.75 39.9167 15.3186 39.9167 22.2766C39.9167 26.3163 38.2441 29.9876 35.0887 32.3076C34.9448 32.4134 34.8846 32.5247 34.8669 32.6002C34.6695 33.4379 34.4292 34.5466 34.2101 35.6716C33.9054 37.2353 33.6574 38.7521 33.6046 39.625C33.4878 41.5553 32.0677 43.1342 30.1843 43.5411L29.8577 43.6117C27.9757 44.0183 26.0244 44.0183 24.1424 43.6117L23.8158 43.5411C21.9324 43.1342 20.5123 41.5553 20.3955 39.625C20.3427 38.7521 20.0947 37.2353 19.79 35.6716C19.5709 34.5466 19.3305 33.4379 19.1332 32.6002C19.1155 32.5247 19.0553 32.4134 18.9114 32.3076C15.756 29.9876 14.0834 26.3163 14.0834 22.2766Z" fill="#2A72E1"/>
</svg>
