<svg width="53" height="53" viewBox="0 0 53 53" fill="none" xmlns="http://www.w3.org/2000/svg">
<path d="M0 10C0 4.47715 4.47715 0 10 0H43C48.5229 0 53 4.47715 53 10V43C53 48.5229 48.5228 53 43 53H10C4.47715 53 0 48.5228 0 43V10Z" fill="white"/>
<path fill-rule="evenodd" clip-rule="evenodd" d="M19.0833 17.0516V15.102C19.0833 13.6583 20.1396 12.4318 21.5673 12.2176L23.6005 11.9126C25.8542 11.5746 28.1458 11.5746 30.3995 11.9126L32.4327 12.2176C33.8604 12.4318 34.9167 13.6583 34.9167 15.102V17.0516L37.7734 17.2822C39.9607 17.4588 41.7449 19.1057 42.0957 21.2719C42.871 26.0594 42.871 30.9406 42.0957 35.7281C41.7449 37.8943 39.9607 39.5412 37.7734 39.7178L34.6535 39.9696C29.5594 40.3808 24.4405 40.3808 19.3464 39.9696L16.2266 39.7178C14.0393 39.5412 12.255 37.8943 11.9042 35.7281C11.1289 30.9406 11.1289 26.0594 11.9042 21.2719C12.255 19.1057 14.0393 17.4588 16.2266 17.2822L19.0833 17.0516ZM23.9714 14.385C25.9792 14.0838 28.0208 14.0838 30.0286 14.385L32.0618 14.6899C32.2658 14.7205 32.4167 14.8958 32.4167 15.102V16.8763C28.8085 16.6706 25.1915 16.6706 21.5833 16.8763V15.102C21.5833 14.8958 21.7342 14.7205 21.9382 14.6899L23.9714 14.385ZM19.5476 19.5223C24.5078 19.1219 29.4922 19.1219 34.4524 19.5223L37.5722 19.7741C38.6125 19.8581 39.461 20.6413 39.6279 21.6715C39.7318 22.3131 39.8209 22.9564 39.8953 23.601C31.766 27.604 22.234 27.604 14.1046 23.601C14.179 22.9564 14.2682 22.3131 14.3721 21.6715C14.5389 20.6413 15.3875 19.8581 16.4277 19.7741L19.5476 19.5223ZM13.8815 26.2611C22.2138 30.0506 31.7862 30.0506 40.1185 26.2611C40.2774 29.288 40.1138 32.3277 39.6279 35.3285C39.461 36.3587 38.6125 37.1419 37.5722 37.2259L34.4524 37.4777C29.4922 37.8781 24.5078 37.8781 19.5476 37.4777L16.4277 37.2259C15.3875 37.1419 14.5389 36.3587 14.3721 35.3285C13.8861 32.3277 13.7226 29.2881 13.8815 26.2611Z" fill="#2A72E1"/>
</svg>
