<svg width="50" height="50" viewBox="0 0 50 50" fill="none" xmlns="http://www.w3.org/2000/svg">
<path d="M4.6875 20.8954C4.6875 15.2694 9.62321 10.9375 15.4167 10.9375C18.4031 10.9375 21.0309 12.3378 22.9167 14.1497C24.8024 12.3378 27.4303 10.9375 30.4167 10.9375C36.2101 10.9375 41.1458 15.2694 41.1458 20.8954C41.1458 21.2337 41.1332 21.5684 41.1085 21.8995C41.085 22.2159 40.8164 22.4537 40.499 22.4537H38.6297C38.2473 22.4537 37.956 22.1133 37.9869 21.7321C38.0094 21.4551 38.0208 21.1762 38.0208 20.8954C38.0208 17.2481 34.7484 14.0625 30.4167 14.0625C27.9289 14.0625 25.6058 15.5488 24.1553 17.4353C23.8596 17.8199 23.4019 18.0453 22.9167 18.0453C22.4314 18.0453 21.9738 17.8199 21.678 17.4353C20.2275 15.5488 17.9045 14.0625 15.4167 14.0625C11.0849 14.0625 7.8125 17.2481 7.8125 20.8954C7.8125 23.8194 9.05372 26.5417 11.0544 29.0588C13.0589 31.5809 15.7561 33.8061 18.4807 35.6937C19.5117 36.4079 20.4828 37.0157 21.3134 37.4387C22.2055 37.893 22.7222 38.0208 22.9167 38.0208C23.1111 38.0208 23.6278 37.893 24.5199 37.4387C25.3505 37.0157 26.3216 36.4079 27.3526 35.6937C28.2401 35.0788 29.1246 34.4282 29.9833 33.7432C30.2864 33.5013 30.7358 33.5826 30.9286 33.9191L31.8695 35.5615C32.0221 35.8279 31.959 36.166 31.7178 36.356C30.8596 37.0324 29.9902 37.6681 29.1322 38.2624C28.0449 39.0157 26.9448 39.7106 25.9381 40.2234C24.9927 40.7048 23.9057 41.1458 22.9167 41.1458C21.9276 41.1458 20.8406 40.7048 19.8953 40.2234C18.8885 39.7106 17.7885 39.0157 16.7011 38.2624C13.8543 36.2902 10.881 33.863 8.60796 31.0032C6.331 28.1384 4.6875 24.7493 4.6875 20.8954Z" fill="#FA6569"/>
<path d="M30.8475 20.1823C30.6233 19.6932 30.1632 19.3538 29.6297 19.284C29.0961 19.2143 28.5642 19.4239 28.2218 19.839L23.9162 25.0579H20.8333C19.9704 25.0579 19.2708 25.7574 19.2708 26.6204C19.2708 27.4833 19.9704 28.1829 20.8333 28.1829H24.6528C25.1192 28.1829 25.5612 27.9745 25.858 27.6147L29.0456 23.7511L32.781 31.901C33.0052 32.3902 33.4653 32.7296 33.9988 32.7993C34.5323 32.8691 35.0642 32.6594 35.4067 32.2444L38.7574 28.1829H43.75C44.6129 28.1829 45.3125 27.4833 45.3125 26.6204C45.3125 25.7574 44.6129 25.0579 43.75 25.0579H38.0208C37.5544 25.0579 37.1124 25.2662 36.8156 25.626L34.5829 28.3323L30.8475 20.1823Z" fill="#FA6569"/>
</svg>
