<svg width="51" height="50" viewBox="0 0 51 50" fill="none" xmlns="http://www.w3.org/2000/svg">
<path d="M21.3333 6.28701C20.4703 6.28701 19.7708 5.58746 19.7708 4.72451C19.7708 3.86157 20.4703 3.16201 21.3333 3.16201H28.699C29.5619 3.16201 30.2615 3.86157 30.2615 4.72451C30.2615 5.58746 29.5619 6.28701 28.699 6.28701H21.3333Z" fill="#45BAC5"/>
<path d="M14.1048 7.22848C14.715 7.83868 14.715 8.828 14.1048 9.43819L8.89648 14.6465C8.28629 15.2567 7.29697 15.2567 6.68677 14.6465C6.07658 14.0363 6.07658 13.047 6.68677 12.4368L11.8951 7.22848C12.5053 6.61829 13.4946 6.61829 14.1048 7.22848Z" fill="#45BAC5"/>
<path d="M25.5 11.9792C17.1582 11.9792 10.3958 18.7415 10.3958 27.0833C10.3958 35.4251 17.1582 42.1875 25.5 42.1875C33.8418 42.1875 40.6041 35.4251 40.6041 27.0833C40.6041 26.2204 41.3037 25.5208 42.1666 25.5208C43.0296 25.5208 43.7291 26.2204 43.7291 27.0833C43.7291 37.151 35.5676 45.3125 25.5 45.3125C15.4323 45.3125 7.27079 37.151 7.27079 27.0833C7.27079 17.0156 15.4323 8.85417 25.5 8.85417C26.3629 8.85417 27.0625 9.55372 27.0625 10.4167C27.0625 11.2796 26.3629 11.9792 25.5 11.9792Z" fill="#45BAC5"/>
<path d="M36.3087 17.4255C36.7925 16.8035 36.7374 15.9186 36.1802 15.3614C35.623 14.8042 34.7381 14.7491 34.1161 15.2329L27.5121 20.3693L23.1966 23.4518C22.2748 24.1102 21.7277 25.1733 21.7277 26.3061C21.7277 28.2434 23.2982 29.8139 25.2355 29.8139C26.3683 29.8139 27.4314 29.2668 28.0898 28.345L31.1723 24.0295L36.3087 17.4255Z" fill="#45BAC5"/>
</svg>
